HIERARCHY
ROOT Hips
{
	OFFSET -3.958830 18.904000 13.208200
	CHANNELS 6 Xposition Yposition Zposition Zrotation Yrotation Xrotation 
	JOINT LHipJoint
	{
		OFFSET 0.000000 0.000000 0.000000
		CHANNELS 3 Zrotation Yrotation Xrotation
		JOINT LeftUpLeg
		{
			OFFSET 1.800000 -1.400000 0.085000
			CHANNELS 3 Zrotation Yrotation Xrotation
			JOINT LeftLeg
			{
				OFFSET 2.215000 -6.000000 0.000000
				CHANNELS 3 Zrotation Yrotation Xrotation
				JOINT LeftFoot
				{
					OFFSET 2.500000 -6.900000 0.000000
					CHANNELS 3 Zrotation Yrotation Xrotation
					JOINT LeftToeBase
					{
						OFFSET 0.200000 -0.500000 1.950000
						CHANNELS 3 Zrotation Yrotation Xrotation
						End Site
						{
							OFFSET 0.000000 0.000000 0.000000
						}
					}
				}
			}
		}
	}
	JOINT RHipJoint
	{
		OFFSET 0.000000 0.000000 0.000000
		CHANNELS 3 Zrotation Yrotation Xrotation
		JOINT RightUpLeg
		{
			OFFSET -1.800000 -1.400000 0.085000
			CHANNELS 3 Zrotation Yrotation Xrotation
			JOINT RightLeg
			{
				OFFSET -2.215000 -6.000000 0.000000
				CHANNELS 3 Zrotation Yrotation Xrotation
				JOINT RightFoot
				{
					OFFSET -2.500000 -6.900000 0.000000
					CHANNELS 3 Zrotation Yrotation Xrotation
					JOINT RightToeBase
					{
						OFFSET -0.200000 -0.500000 1.950000
						CHANNELS 3 Zrotation Yrotation Xrotation
						End Site
						{
							OFFSET 0.000000 0.000000 0.000000
						}
					}
				}
			}
		}
	}
	JOINT LowerBack
	{
		OFFSET 0.000000 0.000000 0.000000
		CHANNELS 3 Zrotation Yrotation Xrotation
		JOINT Spine
		{
			OFFSET -0.087000 1.940000 -0.288900
			CHANNELS 3 Zrotation Yrotation Xrotation
			JOINT Spine1
			{
				OFFSET 0.000000 1.950000 0.060000
				CHANNELS 3 Zrotation Yrotation Xrotation
				JOINT Neck
				{
					OFFSET 0.000000 0.000000 0.000000
					CHANNELS 3 Zrotation Yrotation Xrotation
					JOINT Neck1
					{
						OFFSET 0.000000 1.600000 0.340000
						CHANNELS 3 Zrotation Yrotation Xrotation
						JOINT Head
						{
							OFFSET 0.000000 1.667000 -0.240000
							CHANNELS 3 Zrotation Yrotation Xrotation
							End Site
							{
								OFFSET 0.000000 0.000000 0.000000
							}
						}
					}
				}
				JOINT LeftShoulder
				{
					OFFSET 0.000000 0.000000 0.000000
					CHANNELS 3 Zrotation Yrotation Xrotation
					JOINT LeftArm
					{
						OFFSET 2.700000 1.550000 -0.730000
						CHANNELS 3 Zrotation Yrotation Xrotation
						JOINT LeftForeArm
						{
							OFFSET 5.450000 0.000000 0.000000
							CHANNELS 3 Zrotation Yrotation Xrotation
							JOINT LeftHand
							{
								OFFSET 3.450000 0.000000 0.000000
								CHANNELS 3 Zrotation Yrotation Xrotation
								JOINT LeftHandIndex1
								{
									OFFSET 0.750000 0.000000 0.000000
									CHANNELS 3 Zrotation Yrotation Xrotation
									End Site
									{
										OFFSET 0.000000 0.000000 0.000000
									}
								}
							}
						}
					}
				}
				JOINT RightShoulder
				{
					OFFSET 0.000000 0.000000 0.000000
					CHANNELS 3 Zrotation Yrotation Xrotation
					JOINT RightArm
					{
						OFFSET -2.700000 1.550000 -0.730000
						CHANNELS 3 Zrotation Yrotation Xrotation
						JOINT RightForeArm
						{
							OFFSET -5.450000 0.000000 0.000000
							CHANNELS 3 Zrotation Yrotation Xrotation
							JOINT RightHand
							{
								OFFSET -3.450000 0.000000 0.000000
								CHANNELS 3 Zrotation Yrotation Xrotation
								JOINT RightHandIndex1
								{
									OFFSET -0.750000 0.000000 0.000000
									CHANNELS 3 Zrotation Yrotation Xrotation
									End Site
									{
										OFFSET 0.000000 0.000000 0.000000
									}
								}
							}
						}
					}
				}
			}
		}
	}
}
MOTION
Frames: 9
Frame Time: 0.016667
0.689300 17.050130 -2.780500 11.278100 1.764385 -1.583145 -15.119826 13.418346 3.393675 -3.712099 -1.031552 -6.990861 -16.392466 9.473651 17.674822 0.508965 5.750592 2.817335 -0.251240 -0.211550 -0.426540 18.402921 -10.060122 3.155735 -0.576722 3.877054 -38.125948 -9.519014 -1.808145 36.313451 0.149840 -4.442345 2.846552 0.048150 0.714340 0.022360 -3.838949 -3.309352 -7.690697 6.305460 -15.296831 10.133361 -10.637144 -17.144777 -21.589862 0.600772 -8.789374 -5.920392 -16.695626 16.169364 21.724069 2.670710 11.326950 13.215860 -5.223488 12.087819 -2.416899 -18.745211 16.443316 -10.370089 132.315504 6.480392 17.453823 -4.414313 3.926692 -0.389220 0.547680 -0.514480 0.165620 4.603456 -9.667717 1.193086 11.211262 -6.370163 1.884691 -128.169064 27.334394 -43.988092 2.378149 -2.476383 -0.226700 0.133180 0.179170 0.129500 
0.670800 17.070320 -2.720930 10.093863 0.806197 -1.443356 -15.122743 13.502038 3.316270 -3.563028 -0.755876 -6.618372 -14.772850 9.080418 17.635134 0.469143 5.583670 2.874815 -0.261820 -0.225280 -0.437180 18.389986 -10.010804 3.225394 -0.880749 3.917155 -38.292234 -5.889341 -2.752324 32.765026 0.262908 -3.866473 3.053049 0.037480 0.722030 0.023290 -3.803880 -3.380763 -7.622345 7.111954 -14.892025 9.415189 -10.722549 -16.525752 -21.629356 0.860026 -8.446863 -4.945882 -15.963555 16.339868 22.038893 3.093570 11.333510 13.688040 -6.116521 16.075510 -3.352062 -23.523190 15.879685 -8.782168 134.307663 0.884185 7.337072 -4.355965 3.900266 -0.390170 0.549290 -0.518730 0.166480 4.932824 -13.886698 0.570489 16.007874 -6.962456 3.281906 -131.330245 30.840210 -53.327129 2.273890 -2.458238 -0.227750 0.128890 0.184040 0.133170 
0.648370 17.089280 -2.660780 9.150074 -0.097317 -1.227120 -15.116413 13.560293 3.272794 -3.564037 -0.557265 -6.406197 -13.491304 8.685977 17.341897 0.439764 5.405661 2.937567 -0.273530 -0.245250 -0.452140 18.379540 -10.002795 3.265977 -1.575390 3.756699 -38.052375 -2.028579 -3.597266 28.941382 0.356252 -3.374331 3.234036 0.019840 0.718860 0.017880 -3.787719 -3.382742 -7.571453 7.548341 -13.607259 8.971472 -11.016373 -15.207202 -21.702010 1.136117 -8.122226 -4.172941 -15.349598 14.989622 22.398598 3.301200 9.748680 13.907090 -6.378276 20.331418 -3.874820 -28.339371 12.649914 -4.642216 136.146407 -6.607908 -6.986183 -4.262142 3.816001 -0.390240 0.535880 -0.522460 0.166370 4.745892 -18.430078 -0.248663 21.063243 -10.159030 3.370333 -133.176071 32.308871 -58.689912 2.180983 -2.473499 -0.222450 0.125610 0.189010 0.142030 
0.629130 17.103080 -2.596380 7.801376 -0.929442 -0.987317 -15.120418 13.664243 3.228094 -3.148285 -0.464287 -6.416276 -12.063934 8.300118 17.279952 0.415225 5.233486 2.991369 -0.285510 -0.278510 -0.458490 18.343309 -9.989286 3.332690 -2.166935 3.699908 -37.112131 2.250262 -4.345404 24.952336 0.417375 -3.000721 3.373990 -0.012960 0.691900 0.016690 -3.719507 -3.461474 -7.562098 7.971956 -11.466905 8.741347 -10.191690 -12.915111 -21.839566 1.298743 -8.025716 -3.644939 -15.403791 12.287447 23.173074 2.759250 7.140420 14.032710 -5.500328 25.898247 -3.861121 -34.442819 9.537780 2.049397 137.878564 -17.634166 -29.376328 -4.123857 3.672331 -0.380500 0.505450 -0.515740 0.158760 3.790885 -23.777497 -1.232741 24.695469 -14.917298 3.198642 -134.062978 33.489883 -63.637285 2.089023 -2.484868 -0.206160 0.110280 0.194450 0.147580 
0.617310 17.122440 -2.541590 5.959534 -1.685081 -1.656861 -15.159624 13.845571 3.166130 -2.126782 -0.276226 -5.711016 -10.627907 8.039879 17.430157 0.420564 5.136716 3.003801 -0.276520 -0.293700 -0.427050 18.271130 -9.976158 3.334312 -2.184351 3.595799 -34.756911 5.794097 -4.695901 20.983257 0.431403 -2.704978 3.487229 -0.049490 0.614600 0.009800 -3.553624 -3.706834 -7.546041 8.038222 -9.489415 8.567091 -8.461087 -10.513707 -20.324812 1.372093 -7.693197 -3.401736 -15.552864 9.760395 25.433581 2.252760 4.803660 13.912790 -4.084723 30.187800 -3.302133 -42.156803 7.362863 8.366110 139.856338 -28.803064 -54.069165 -3.944017 3.552997 -0.337500 0.440740 -0.471650 0.140970 2.459920 -27.849366 -2.071029 30.069566 -18.129450 3.356882 -134.712479 36.041578 -71.910249 1.973721 -2.433970 -0.178400 0.083540 0.180270 0.136690 
0.607900 17.140270 -2.489880 3.732976 -2.661485 -2.588296 -15.255596 14.066146 3.078837 -0.549161 -0.076527 -4.779050 -9.264649 7.822085 17.426982 0.435184 5.069639 2.999305 -0.255100 -0.302280 -0.362180 18.154844 -9.891186 3.342269 -1.624767 3.639972 -31.809841 8.965257 -4.907333 17.586181 0.400084 -2.549128 3.547753 -0.090360 0.505880 0.007580 -3.237893 -4.143450 -7.556914 7.758755 -7.550287 8.289495 -5.233415 -7.922758 -18.129820 1.479850 -7.013762 -3.173798 -15.570491 7.337685 28.498930 1.182830 2.914480 13.577030 -2.962684 32.498829 -2.494980 -50.124672 7.259183 12.533355 142.177273 -39.745783 -79.734660 -3.786257 3.548668 -0.274110 0.362090 -0.402840 0.114660 1.440536 -29.970085 -2.931254 35.596170 -20.662663 1.791499 -134.104297 38.101680 -76.549087 1.934636 -2.325558 -0.144290 0.045830 0.152130 0.111270 
0.588500 17.158710 -2.440150 1.491075 -4.179396 -3.231486 -15.372559 14.230220 2.967641 1.319475 0.050501 -4.005154 -8.263326 7.683445 17.222015 0.456303 5.027112 2.986568 -0.237730 -0.312330 -0.301060 18.040947 -9.763618 3.372168 -0.435259 3.836777 -28.959983 11.309029 -4.880486 14.592022 0.356446 -2.451200 3.588580 -0.131840 0.402750 0.007790 -2.882385 -4.543406 -7.565141 7.294266 -5.707394 7.740395 -1.058238 -5.427092 -15.876154 1.369442 -6.176070 -3.014588 -15.358677 5.428484 31.201061 0.264930 1.410210 13.272510 -1.933152 33.026854 -1.316376 -56.875873 8.802071 13.117435 145.866543 -50.266840 -105.028391 -3.642945 3.755313 -0.216020 0.289340 -0.337740 0.087710 0.955919 -30.312843 -3.647428 40.516405 -22.340077 -2.024000 -131.241876 39.287803 -74.068687 1.969887 -2.109220 -0.110760 0.004780 0.125670 0.086730 
0.562010 17.178140 -2.392330 -0.420865 -6.435256 -3.810568 -15.467227 14.341579 2.845182 2.657118 0.214140 -3.025302 -6.866530 7.424630 17.011539 0.462975 4.957469 2.987035 -0.219970 -0.312940 -0.240830 17.970595 -9.657730 3.383034 1.201341 3.969196 -26.299162 12.370848 -4.696708 12.370353 0.307747 -2.374098 3.622466 -0.161680 0.316010 0.005790 -2.610123 -4.830447 -7.510632 7.064910 -4.694240 6.925886 2.670436 -3.959768 -13.394967 1.169094 -5.406170 -3.036230 -14.967727 5.103410 33.569377 -0.091940 1.485040 12.739980 -0.756878 33.101663 -0.017518 -62.241158 11.202466 9.846779 153.159937 -60.144974 -130.284963 -3.437070 4.039875 -0.155090 0.228730 -0.275590 0.063180 0.391800 -30.417402 -4.059123 45.019648 -22.011756 -4.806653 -129.224763 41.220705 -74.082207 2.005295 -1.903605 -0.090430 -0.024270 0.101810 0.057310 
0.526740 17.186000 -2.349800 -1.704192 -8.856857 -4.413428 -15.543783 14.367782 2.735899 3.415479 0.373094 -1.842936 -5.755050 7.260061 16.970178 0.467958 4.951947 2.972673 -0.201430 -0.306380 -0.183000 17.936084 -9.589870 3.358783 2.808419 3.931040 -23.909755 12.547976 -4.501307 10.846361 0.262203 -2.335863 3.636921 -0.175160 0.249740 0.007400 -2.418001 -4.943883 -7.384590 6.445709 -4.033226 5.946641 5.497501 -3.168267 -10.413342 0.786548 -4.391024 -3.059116 -13.651974 5.181576 35.349608 -0.220520 2.199980 11.881120 0.678262 32.676906 1.557484 -66.132674 12.250359 5.705628 166.247667 -67.933395 -156.354538 -3.218317 4.140251 -0.104410 0.188760 -0.225770 0.040480 -0.177205 -30.577506 -4.543443 50.148242 -20.948225 -6.970489 -127.403848 44.277799 -76.449592 2.021835 -1.684247 -0.081060 -0.044120 0.082980 0.025760 
